<svg id="Layer_1" data-name="Layer 1" xmlns="http://www.w3.org/2000/svg" viewBox="0 0 49.2153 67.1873"><defs><style>.cls-1{fill:#d83030;}</style></defs><title>copsOnDuty</title><circle class="cls-1" cx="24.798" cy="60.1873" r="7"/><path class="cls-1" d="M49.5777,18.032c-1.2183,1.2225-1.5518,1.3044-2.744.6748q-.4958.892-.991,1.7826a1.4034,1.4034,0,0,1,.6454,1.8619c-.0912.3281-.1905.6559-.2519.9909a3.253,3.253,0,0,0,1.1422,3.5921c.7526.54,1.46,1.15,2.2,1.7391.8271-.6694,1.6314-1.3446,2.46-1.9844a2.7072,2.7072,0,0,0,.9961-2.5885,7.3663,7.3663,0,0,0-.2832-1.505c-.2728-.8662-.2974-1.62.5888-2.1111-.3489-.6258-.6764-1.213-1.0148-1.82C51.1579,19.6179,50.3627,18.81,49.5777,18.032Z" transform="translate(-24.7847 -6)"/><path class="cls-1" d="M49.729,6a31.2921,31.2921,0,0,0-9.848,1.5193c-13.5123,4.5433-19.4059,17.5566-11.6135,27.803,5.19,6.8245,10.5788,13.5538,15.8866,20.3219,2.4656,3.1439,8.0337,3.1375,10.5159.002,2.4806-3.1333,5.0021-6.2467,7.4523-9.3949,3.0271-3.8895,6.2363-7.7055,8.9513-11.7294C79.8068,21.5783,67.9094,6.0007,49.729,6ZM61.4033,36.0636a20.0847,20.0847,0,0,1-7.5339,4.23c-4.0145,1.3491-7.8346.6291-11.56-1.1607a16.7593,16.7593,0,0,1-4.4973-2.9946,2.81,2.81,0,0,1-.6706-3.5,18.5782,18.5782,0,0,1,.9553-1.6746c-.1715-.5417-.1715-.5417.1814-.8864,7.53,4.5943,15.1122,4.574,22.6178.0037.4784.2829.3006.5781.1781.7965a19.8119,19.8119,0,0,1,1.0373,1.9377A2.6942,2.6942,0,0,1,61.4033,36.0636ZM63.706,24.4844a7.2066,7.2066,0,0,1-2.3485,2.5445c.2764.4427.1383.8645-.3885,1.1549a29.6121,29.6121,0,0,1-5.6733,2.409,18.7944,18.7944,0,0,1-6.4355.9166,22.0828,22.0828,0,0,1-7.48-1.821c-1.09-.4577-2.1467-1.0077-3.2081-1.5393-.4973-.2491-.606-.6432-.4146-.9719A28.7681,28.7681,0,0,1,35.78,24.9807a2.3963,2.3963,0,0,1,.513-3.6484,36.362,36.362,0,0,1,4.5019-2.74c2.3193-1.163,4.7111-2.1641,7.0776-3.22a4.3012,4.3012,0,0,1,3.396-.0285A59.0262,59.0262,0,0,1,62.335,20.85a5.5428,5.5428,0,0,1,.9983.8416A2.3638,2.3638,0,0,1,63.706,24.4844Z" transform="translate(-24.7847 -6)"/></svg>